<svg xmlns:xlink="http://www.w3.org/1999/xlink" version="1.1" viewBox="0 0 233 19" xmlns="http://www.w3.org/2000/svg">
  <title>Backbase</title>
  <defs>
    <path d="M24.8973214,0.0364945978 L8.72767857,0.0364945978 L11.0491071,4.17406963 L11.9821429,4.17406963 L12.1160714,4.17863145 L22.9732143,4.17863145 C23.2544643,4.17863145 23.9330357,4.32004802 23.9375,5.24609844 L23.9375,13.8177671 C23.9330357,14.7483794 23.2544643,14.8852341 22.9732143,14.8852341 L9.28125,14.9171669 L9.27232143,11.4045618 L20.5446429,11.4045618 L20.5446429,7.46314526 L9.03125,7.47683073 L4.68303571,0 L0,0 L5.25,9.34717887 L5.24553571,18.9954382 L9.16071429,18.9954382 L9.16071429,19 L25.1517857,19 C26.9508929,19 28,17.3987995 28,14.1827131 L28,4.19231693 C28,1.44153661 26.9508929,0.0364945978 24.8973214,0.0364945978" id="path-1"></path>
    <path d="M41.9434365,11.3872514 L29.0431163,11.3872514 L29.0431163,19 L25,19 L25,3.86101126 C25,1.27030913 26.33127,0 28.8817503,0 L42.5620064,0 C44.8659552,0 46,1.39779535 46,4.14785526 L46,7.07093218 L46,13.5226456 L46,19 L41.9568837,19 L41.9434365,11.3872514 Z M41.9165422,7.28492691 L41.9165422,7.28492691 L29.0475987,7.28492691 L29.0475987,5.19961658 C29.0475987,4.2707884 29.7334045,4.12964294 30.0157951,4.12964294 L40.9259338,4.12964294 C41.1276414,4.12964294 41.9389541,4.36640307 41.9165422,5.2405943 L41.9165422,7.28492691 Z M76.029484,11.3917946 L76.029484,18.9772073 L72,18.9772073 L72,0.00455854127 L76.029484,0.00455854127 L76.029484,7.29366603 L83.0788474,7.29366603 L87.3138262,0 L92,0 L86.746482,9.33133397 L92,19 L87.3450972,19 L83.0341747,11.3917946 L76.029484,11.3917946 Z M171,19 L171,0 L191,0 L191,4.15240834 L175.049774,4.15240834 L175.049774,7.29403307 L191,7.29403307 L191,11.3963575 L175.049774,11.3963575 L175.049774,14.8703571 L191,14.8703571 L191,19 L171,19 Z M161.598884,14.8426104 C161.88076,14.8426104 162.576359,14.7012956 162.580905,13.7713532 L162.580905,12.4357006 C162.576359,11.5103167 161.885307,11.3690019 161.598884,11.3690019 L148.546187,11.3644434 C146.61397,11.3644434 145.772887,9.94673704 145.772887,7.0702975 L145.772887,4.15283109 C145.772887,1.39491363 146.759454,0 148.687125,0 L167,0 L164.576772,4.13915547 L150.855755,4.13003839 C150.569333,4.13003839 149.878281,4.27135317 149.869188,5.20129559 L149.869188,6.23152591 C149.878281,7.16146833 150.569333,7.29822457 150.855755,7.29822457 L163.572019,7.29366603 C165.704278,7.29366603 166.77268,8.55182342 166.77268,11.5513436 L166.77268,14.1497121 C166.77268,17.3953935 165.704278,19 163.572019,19 L145,19 L147.500517,14.8517274 L161.598884,14.8426104 Z M69.9861111,4.14553765 L55.2175926,4.15467885 C54.9259259,4.15467885 54.2222222,4.29636757 54.2175926,5.22420014 L54.2175926,11.7098869 L54.2175926,13.8077941 C54.2222222,14.7401973 54.9259259,14.8773154 55.2175926,14.8773154 L70,14.8727448 L70,19 L53.2222222,19 C51.0925926,19 50,17.3957181 50,14.1734424 L50,4.16382006 C50,1.40317537 51.087963,0 53.2222222,0 L70,0 L70,4.14553765 L69.9861111,4.14553765 Z M21,3.76298058 L21,3.76298058 L21,7.05968897 C21,8.12815125 20.7939381,8.94547923 20.40471,9.54363546 C20.7939381,10.1372256 21,10.9591197 21,12.027582 L21,15.3197243 C21,18.0776354 19.8826864,19.0045493 17.817488,18.9999832 L1.42108547e-14,18.9999832 L1.42108547e-14,0.000532216482 L17.817488,0.000532216482 C19.8826864,-0.0268642522 21,1.00050332 21,3.76298058 Z M16.7688618,13.7581256 L16.7688618,12.497888 C16.7917575,11.6166349 15.9629307,11.3837649 15.7568687,11.3837649 L4.15329263,11.388331 L4.15329263,14.8722486 L15.7568687,14.8768147 C15.9629307,14.8768147 16.7917575,14.6393786 16.7688618,13.7581256 Z M16.7688618,6.15103943 L16.7688618,5.24238989 C16.7917575,4.36113681 15.9629307,4.12826683 15.7568687,4.12826683 L4.15329263,4.1328329 L4.15329263,7.26059641 L15.7568687,7.26516249 C15.9629307,7.26516249 16.7917575,7.0322925 16.7688618,6.15103943 Z M116,3.76298058 L116,7.05968897 C116,8.12815125 115.793893,8.94547923 115.40458,9.54363546 C115.793893,10.1372256 116,10.9591197 116,12.027582 L116,15.3197243 C116,18.0776354 114.882443,19.0045493 112.816794,18.9999832 L95,18.9999832 L95,10.1828864 L95,8.89981845 L95,0.000532216482 L112.816794,0.000532216482 C114.882443,-0.0268642522 116,1.00050332 116,3.76298058 Z M111.772519,13.7581256 L111.772519,12.497888 C111.79542,11.6166349 110.966412,11.3837649 110.760305,11.3837649 L99.1541985,11.388331 L99.1541985,14.8722486 L110.760305,14.8768147 C110.961832,14.8768147 111.79542,14.6393786 111.772519,13.7581256 Z M111.772519,6.15103943 L111.772519,5.24238989 C111.79542,4.36113681 110.966412,4.12826683 110.760305,4.12826683 L99.1541985,4.1328329 L99.1541985,7.26059641 L110.760305,7.26516249 C110.961832,7.26516249 111.79542,7.0322925 111.772519,6.15103943 Z M136.938954,11.3872514 L124.043116,11.3872514 L124.043116,19 L120,19 L120,3.86101126 C120,1.27030913 121.335752,0 123.886233,0 L137.566489,0 C139.865955,0 141,1.39779535 141,4.14785526 L141,7.07093218 L141,13.5226456 L141,19 L136.956884,19 L136.938954,11.3872514 Z M136.91206,7.28492691 L136.91206,5.2405943 C136.934472,4.36640307 136.123159,4.12964294 135.921451,4.12964294 L125.015795,4.12964294 C124.733404,4.12964294 124.047599,4.2707884 124.047599,5.19961658 L124.047599,7.28492691 L136.91206,7.28492691 L136.91206,7.28492691 Z" id="path-3"></path>
  </defs>
  <g fill="none" fill-rule="evenodd" id="Login" stroke="none" stroke-width="1">
    <g id="01---login---emptystate" transform="translate(-135.000000, -77.000000)">
      <g id="Logo-/-Full" transform="translate(135.000000, 77.000000)">
        <g id="Emblem">
          <mask fill="#fff" id="mask-2">
            <use xlink:href="#path-1"></use>
          </mask>
          <use xlink:href="#path-1" id="Shape"></use>
          <g id="Primary-/-Fill-/-Default" mask="url(#mask-2)" style="fill: #B21F13; fill: #B21F13, #c12121">
            <rect height="19" id="colors-/-Primary-red" width="28" x="0" y="0"></rect>
          </g>
        </g>
        <g id="Text" transform="translate(42.000000, 0.000000)">
          <mask fill="#fff" id="mask-4">
            <use xlink:href="#path-3"></use>
          </mask>
          <use xlink:href="#path-3" id="Combined-Shape"></use>
          <g id="Secondary-/-Fill-/-Default" mask="url(#mask-4)" style="fill: #fff; fill: #fff, #443c35">
            <g id="colors-/-secondary-dark-grey" transform="translate(-6.000000, 0.000000)">
              <rect height="19" width="197" x="0" y="0"></rect>
            </g>
          </g>
        </g>
      </g>
    </g>
  </g>
</svg>